<?xml version="1.0" encoding="UTF-8"?>
<svg id="Layer_2" data-name="Layer 2" xmlns="http://www.w3.org/2000/svg" viewBox="0 0 572.15 66.66">
  <defs>
    <style>
      .cls-1 {
        fill: #fff;
      }

      .cls-2 {
        fill: #00aeef;
      }

      .cls-3 {
        fill: #ed1c2e;
      }
    </style>
  </defs>
  <g id="Capa_1" data-name="Capa 1">
    <g>
      <path class="cls-1" d="m452.41,16.62l.51-16.56h-65.65c-8.5,0-15.38,6.89-15.38,15.38v9.69c0,8.5,6.89,15.38,15.38,15.38h46.37c1.7,0,3.08,1.38,3.08,3.08v3.47c0,1.7-1.38,3.08-3.08,3.08h-61.14l-.55,16.51h65.52c8.5,0,15.38-6.89,15.38-15.38v-10.04c0-8.5-6.89-15.38-15.38-15.38h-46.67c-1.7,0-3.08-1.38-3.08-3.08v-3.08c0-1.7,1.38-3.08,3.08-3.08h61.62Z"/>
      <path class="cls-1" d="m571.64,16.62l.51-16.56h-65.65c-8.5,0-15.38,6.89-15.38,15.38v9.69c0,8.5,6.89,15.38,15.38,15.38h46.37c1.7,0,3.08,1.38,3.08,3.08v3.47c0,1.7-1.38,3.08-3.08,3.08h-61.14l-.55,16.51h65.52c8.5,0,15.38-6.89,15.38-15.38v-10.04c0-8.5-6.89-15.38-15.38-15.38h-46.67c-1.7,0-3.08-1.38-3.08-3.08v-3.08c0-1.7,1.38-3.08,3.08-3.08h61.62Z"/>
      <rect class="cls-1" x="463.94" y=".07" width="16.17" height="66.3"/>
      <g>
        <path class="cls-1" d="m83.53,28.23c-1.34-1.28-3.41-1.92-6.15-1.92h-34.57c-7.06,0-12.78,5.72-12.78,12.78h27.64c4.13,0,7.47,3.35,7.47,7.47v4.89h20.16v-18.96s.04-2.53-1.77-4.26Z"/>
        <path class="cls-2" d="m16.26,14.94h69.04V.07H16.15C7.23.07,0,7.29,0,16.21v16.99h16.26V14.94Z"/>
        <path class="cls-3" d="m16.26,33.2H0v16.99c0,8.92,7.23,16.15,16.15,16.15h69.16v-14.87H16.26v-18.26Z"/>
      </g>
      <path class="cls-1" d="m112.4,50.48v-9.37h64.61v-15.85h-64.61v-9.34h64.61V.07h-65.94c-8.17,0-14.79,6.62-14.79,14.79v36.68c0,8.17,6.62,14.79,14.79,14.79h65.94v-15.85h-64.61Z"/>
      <path class="cls-1" d="m296.28,50.48v-9.37h64.61v-15.85h-64.61v-9.34h64.61V.07h-65.94c-8.17,0-14.79,6.62-14.79,14.79v36.68c0,8.17,6.62,14.79,14.79,14.79h65.94v-15.85h-64.61Z"/>
      <polygon class="cls-1" points="252.98 0 252.98 46.35 203.45 0 188.02 0 188.02 14.2 188.02 16.59 188.02 25.74 188.02 29.06 188.02 66.36 204.19 66.36 204.19 29.06 204.19 25.74 204.19 17.37 256.63 66.36 256.66 66.36 269.15 66.36 269.15 0 252.98 0"/>
    </g>
  </g>
</svg>